<?xml version="1.0" encoding="UTF-8"?><svg id="a" xmlns="http://www.w3.org/2000/svg" width="96" height="96" viewBox="0 0 96 96"><path d="M74.7773,13.0959c-1.3486-1.0361-2.756-1.9984-4.2217-2.8754v75.5588c1.4656-.877,2.873-1.8392,4.2217-2.8754V13.0959Z" fill="#9bb0c1" stroke-width="0"/><path d="M54.1113,91.5679c1.4307-.1989,2.8385-.467,4.2217-.8001V5.2322c-1.3832-.3331-2.791-.6012-4.2217-.8001v87.1359Z" fill="#9bb0c1" stroke-width="0"/><path d="M33.667,6.4007c-1.4429.4971-2.8522,1.0645-4.2227,1.703v79.7926c1.3705.6385,2.7798,1.2059,4.2227,1.703V6.4007Z" fill="#9bb0c1" stroke-width="0"/><path d="M87,68.3667c3.1876-6.0911,5-13.0155,5-20.3667s-1.8124-14.2756-5-20.3667v40.7334Z" fill="#9bb0c1" stroke-width="0"/><path d="M66.5557,8.1037c-1.3705-.6385-2.7798-1.2059-4.2227-1.703v83.1986c1.4429-.4971,2.8522-1.0645,4.2227-1.703V8.1037Z" fill="#9bb0c1" stroke-width="0"/><path d="M83,21.3448c-1.2917-1.6935-2.7034-3.2895-4.2227-4.7773v62.8649c1.5192-1.4878,2.9309-3.0837,4.2227-4.7772V21.3448Z" fill="#9bb0c1" stroke-width="0"/><path d="M17.2227,16.5676c-1.5192,1.4878-2.9309,3.0837-4.2227,4.7772v53.3104c1.2917,1.6935,2.7034,3.2894,4.2227,4.7772V16.5676Z" fill="#9bb0c1" stroke-width="0"/><path d="M50.1113,4.0534c-.7-.0331-1.4032-.0534-2.1113-.0534s-1.4114.0203-2.1113.0534v87.8932c.7.0331,1.4032.0534,2.1113.0534s1.4114-.0203,2.1113-.0534V4.0534Z" fill="#9bb0c1" stroke-width="0"/><path d="M9,27.6333c-3.1876,6.0911-5,13.0155-5,20.3667s1.8124,14.2756,5,20.3667V27.6333Z" fill="#9bb0c1" stroke-width="0"/><path d="M21.2227,82.9041c1.3486,1.0361,2.756,1.9984,4.2217,2.8754V10.2206c-1.4656.877-2.873,1.8392-4.2217,2.8754v69.8081Z" fill="#9bb0c1" stroke-width="0"/><path d="M41.8887,4.4321c-1.4307.1989-2.8385.467-4.2217.8001v85.5356c1.3832.3331,2.791.6012,4.2217.8001V4.4321Z" fill="#9bb0c1" stroke-width="0"/></svg>