<?xml version="1.0" encoding="UTF-8"?><svg id="a" xmlns="http://www.w3.org/2000/svg" width="96" height="96" viewBox="0 0 96 96"><path d="M85.3034,48c4.0492-2.9031,6.6966-7.6375,6.6966-13,0-8.8365-7.1635-16-16-16-3.4875,0-6.7046,1.1283-9.3333,3.0223-2.6287-1.894-5.8458-3.0223-9.3333-3.0223s-6.7045,1.1283-9.3333,3.0224c-2.6288-1.8941-5.8459-3.0224-9.3334-3.0224s-6.7045,1.1283-9.3333,3.0224c-2.6288-1.8941-5.8459-3.0224-9.3334-3.0224-8.8365,0-16,7.1635-16,16,0,5.3625,2.6474,10.0969,6.6966,13-4.0492,2.9031-6.6966,7.6375-6.6966,13,0,8.8365,7.1635,16,16,16,3.4875,0,6.7046-1.1283,9.3334-3.0224,2.6288,1.8941,5.8458,3.0224,9.3333,3.0224s6.7046-1.1283,9.3334-3.0224c2.6288,1.8941,5.8458,3.0224,9.3333,3.0224s6.7046-1.1283,9.3333-3.0223c2.6287,1.894,5.8458,3.0223,9.3333,3.0223,8.8365,0,16-7.1635,16-16,0-5.3625-2.6474-10.0969-6.6966-13ZM29.3334,48.0228c-.0102-.0073-.0198-.0155-.03-.0228.0102-.0073.0198-.0155.03-.0228.0102.0073.0197.0155.0299.0228-.0102.0073-.0197.0155-.0299.0228ZM48.0001,48.0228c-.0102-.0073-.0198-.0155-.03-.0228.0102-.0073.0198-.0155.03-.0228.0102.0073.0197.0155.0299.0228-.0102.0073-.0197.0155-.0299.0228ZM66.6667,48.0228c-.0102-.0073-.0197-.0154-.0299-.0228.0102-.0073.0197-.0154.0299-.0228.0102.0073.0197.0154.0299.0228-.0102.0073-.0197.0154-.0299.0228Z" fill="#ac87c5" stroke-width="0"/></svg>