<?xml version="1.0" encoding="UTF-8"?><svg id="a" xmlns="http://www.w3.org/2000/svg" width="96" height="96" viewBox="0 0 96 96"><path d="M70.3098,48c6.3913-2.4813,12.402-6.1485,15.7746-9.5211,7.8876-7.8875,7.8875-20.6757,0-28.5633-7.8875-7.8875-20.6757-7.8875-28.5632,0-3.3726,3.3726-7.0399,9.3833-9.5211,15.7746-2.4813-6.3913-6.1485-12.402-9.5211-15.7746-7.8875-7.8875-20.6757-7.8875-28.5632,0-7.8875,7.8875-7.8876,20.6757,0,28.5633,3.3726,3.3726,9.3833,7.0398,15.7746,9.5211-6.3913,2.4813-12.402,6.1485-15.7746,9.521-7.8876,7.8876-7.8875,20.6758,0,28.5633,7.8875,7.8875,20.6757,7.8875,28.5632,0,3.3726-3.3726,7.0399-9.3833,9.5211-15.7746,2.4813,6.3913,6.1485,12.402,9.5211,15.7746,7.8875,7.8875,20.6757,7.8875,28.5632,0,7.8875-7.8875,7.8876-20.6757,0-28.5633-3.3726-3.3726-9.3833-7.0398-15.7746-9.521Z" fill="#e5e0ff" stroke-width="0"/></svg>