<?xml version="1.0" encoding="UTF-8"?><svg id="a" xmlns="http://www.w3.org/2000/svg" width="96" height="96" viewBox="0 0 96 96"><path d="M92,75.9991h0c0-11.9991-43.9999-71.9991-43.9999-71.9991,0,0-43.9999,60-43.9999,71.999h0s0,.0001,0,.0001c0,.0004,0,.0006,0,.0009,0,10.9932,22.8081,16,44,16s44-5.0068,44-16c0-.0002,0-.0005,0-.0009h0ZM48,84c-23.1899,0-35.1797-5.7363-35.9868-8,.8071-2.2637,12.7969-8,35.9868-8s35.1797,5.7363,35.9868,8c-.8071,2.2637-12.7969,8-35.9868,8Z" fill="#ffd966" stroke-width="0"/></svg>