<?xml version="1.0" encoding="UTF-8"?><svg id="a" xmlns="http://www.w3.org/2000/svg" width="96" height="96" viewBox="0 0 96 96"><path d="M83.2006,60c5.5243,3.3427,8.7994,7.4973,8.7994,12,0,11.0457-19.6995,20-44,20S4,83.0457,4,72c0-4.5027,3.2751-8.6573,8.7994-12-5.5243-3.3427-8.7994-7.4973-8.7994-12s3.2751-8.6573,8.7994-12c-5.5243-3.3427-8.7994-7.4973-8.7994-12C4,12.9543,23.6995,4,48,4s44,8.9543,44,20c0,4.5027-3.2751,8.6573-8.7994,12,5.5243,3.3427,8.7994,7.4973,8.7994,12s-3.2751,8.6573-8.7994,12Z" fill="#ffd9c0" stroke-width="0"/></svg>