<?xml version="1.0" encoding="UTF-8"?><svg id="a" xmlns="http://www.w3.org/2000/svg" width="96" height="96" viewBox="0 0 96 96"><path d="M58.6137,37.3862c16.12,16.12,24.4359,33.9397,18.574,39.8015-5.8618,5.8618-23.6815-2.454-39.8015-18.574C21.2663,42.4938,12.9504,24.674,18.8123,18.8122s23.6815,2.4541,39.8015,18.574ZM77.1877,18.8122C66.1969,7.8214,54.6141,1.5844,51.3168,4.8817s2.9396,14.8801,13.9305,25.871c10.9909,10.9908,22.5737,17.2278,25.871,13.9305,3.2972-3.2972-2.9396-14.8801-13.9305-25.871ZM4.8817,51.3168c-3.2972,3.2972,2.9396,14.8801,13.9305,25.871,10.9908,10.9909,22.5737,17.2278,25.871,13.9305,3.2972-3.2973-2.9396-14.8801-13.9305-25.871-10.9909-10.9909-22.5737-17.2278-25.871-13.9305Z" fill="#f6c6ea" stroke-width="0"/></svg>