<?xml version="1.0" encoding="UTF-8"?><svg id="a" xmlns="http://www.w3.org/2000/svg" width="96" height="96" viewBox="0 0 96 96"><path d="M73.1944,58.0216c6.9174,9.9529,9.8806,18.1288,6.9183,21.0911s-11.1381-.0009-21.091-6.9183c-2.1465,11.9291-5.8324,19.8056-10.0217,19.8056s-7.8752-7.8765-10.0217-19.8056c-9.9529,6.9174-18.1287,9.8806-21.091,6.9183s.0009-11.1381,6.9183-21.0911c-11.9291-2.1465-19.8056-5.8323-19.8056-10.0216s7.8765-7.8752,19.8056-10.0217c-6.9174-9.9529-9.8806-18.1288-6.9183-21.0911s11.1381.001,21.091,6.9183c2.1465-11.9291,5.8324-19.8056,10.0217-19.8056s7.8752,7.8765,10.0217,19.8056c9.9529-6.9174,18.1287-9.8806,21.091-6.9183s-.0009,11.1381-6.9183,21.0911c11.9291,2.1465,19.8056,5.8323,19.8056,10.0217s-7.8765,7.8751-19.8056,10.0216Z" fill="#f6d6d6" stroke-width="0"/></svg>