<?xml version="1.0" encoding="UTF-8"?><svg id="a" xmlns="http://www.w3.org/2000/svg" width="96" height="96" viewBox="0 0 96 96"><path d="M92,48c0-2.3224-7.1143-5.1011-18.0593-6.9508,8.5537-7.0743,13.3256-13.038,12.1644-15.0492-1.1612-2.0113-8.7117-.8605-19.1151,3.01,3.8705-10.4034,5.0213-17.9539,3.01-19.1151-2.0112-1.1613-7.9749,3.6107-15.0492,12.1644-1.8497-10.9449-4.6284-18.0593-6.9508-18.0593s-5.1011,7.1144-6.9508,18.0593c-7.0743-8.5537-13.0379-13.3256-15.0492-12.1644-2.0112,1.1612-.8605,8.7117,3.0101,19.1151-10.4034-3.8705-17.954-5.0213-19.1152-3.01-1.1612,2.0112,3.6107,7.9749,12.1644,15.0492-10.9449,1.8497-18.0593,4.6284-18.0593,6.9508s7.1143,5.1011,18.0593,6.9508c-8.5537,7.0743-13.3256,13.0379-12.1644,15.0492,1.1612,2.0112,8.7118.8605,19.1152-3.0101-3.8705,10.4034-5.0213,17.954-3.0101,19.1152,2.0113,1.1612,7.9749-3.6107,15.0492-12.1644,1.8497,10.9449,4.6284,18.0593,6.9508,18.0593s5.1011-7.1144,6.9508-18.0593c7.0743,8.5537,13.038,13.3256,15.0492,12.1644,2.0113-1.1612.8605-8.7117-3.01-19.1152,10.4034,3.8705,17.9539,5.0213,19.1151,3.0101,1.1613-2.0113-3.6107-7.9749-12.1644-15.0492,10.9449-1.8497,18.0593-4.6284,18.0593-6.9508Z" fill="#d0bfff" stroke-width="0"/></svg>