<?xml version="1.0" encoding="UTF-8"?><svg id="a" xmlns="http://www.w3.org/2000/svg" width="96" height="96" viewBox="0 0 96 96"><path d="M83.7599,30.8331c-6.847-5.4952-13.0978-11.746-18.593-18.593-4.032-5.0239-10.2239-8.2401-17.1669-8.2401s-13.1348,3.2162-17.1669,8.2401c-5.4952,6.847-11.746,13.0978-18.593,18.593-5.0239,4.032-8.2401,10.2238-8.2401,17.1669s3.2162,13.1348,8.2401,17.1668c6.847,5.4953,13.0978,11.746,18.593,18.5931,4.032,5.0239,10.2239,8.2401,17.1669,8.2401s13.1348-3.2162,17.1669-8.2401c5.4952-6.8471,11.746-13.0978,18.593-18.5931,5.0239-4.032,8.2401-10.2238,8.2401-17.1668s-3.2162-13.1348-8.2401-17.1669Z" fill="#b784b7" stroke-width="0"/></svg>