<?xml version="1.0" encoding="UTF-8"?><svg id="a" xmlns="http://www.w3.org/2000/svg" width="96" height="96" viewBox="0 0 96 96"><path d="M82.2249,30.5474c5.9208-3.3233,9.7751-9.3878,9.7751-16.1776v-.5508c0-5.4229-4.3962-9.8191-9.8192-9.8191h-1.8141c-4.39,0-8.1419,2.945-9.4457,7.1368-3.0387,9.7697-12.1515,16.8632-22.921,16.8632s-19.8823-7.0935-22.921-16.8632c-1.3038-4.1918-5.0557-7.1368-9.4457-7.1368h-1.8141c-5.423,0-9.8192,4.3962-9.8192,9.8191v.5508c0,6.7897,3.8542,12.8542,9.7751,16.1776,6.1018,3.425,10.2249,9.9573,10.2249,17.4526s-4.1231,14.0276-10.2249,17.4525c-5.9208,3.3234-9.7751,9.3879-9.7751,16.1776v.5507c0,5.423,4.3962,9.8192,9.8192,9.8192h.8141c4.39,0,8.1419-2.945,9.4457-7.1369,3.0387-9.7696,12.1515-16.8631,22.921-16.8631.3354,0,.668.0117,1,.0253.332-.0136.6646-.0253,1-.0253,10.7695,0,19.8823,7.0935,22.921,16.8631,1.3038,4.1919,5.0557,7.1369,9.4457,7.1369h.8141c5.423,0,9.8192-4.3962,9.8192-9.8192v-.5507c0-6.7897-3.8542-12.8542-9.7751-16.1776-6.1018-3.4249-10.2249-9.9572-10.2249-17.4525s4.1231-14.0276,10.2249-17.4526Z" fill="#d2e0fb" stroke-width="0"/><path d="M72,48c0,7.4953,4.1231,14.0276,10.2249,17.4525,5.9208,3.3234,9.7751,9.3879,9.7751,16.1776v.5507c0,5.423-4.3962,9.8192-9.8192,9.8192h-.8141c-4.39,0-8.1419-2.945-9.4457-7.1369-3.0387-9.7696-12.1515-16.8631-22.921-16.8631-.3354,0-.668.0117-1,.0253-.332-.0136-.6646-.0253-1-.0253-10.7695,0-19.8823,7.0935-22.921,16.8631-1.3038,4.1919-5.0557,7.1369-9.4457,7.1369h-.8141c-5.423,0-9.8192-4.3962-9.8192-9.8192v-.5507c0-6.7897,3.8542-12.8542,9.7751-16.1776,6.1018-3.4249,10.2249-9.9572,10.2249-17.4525s-4.1231-14.0276-10.2249-17.4526c-5.9208-3.3233-9.7751-9.3878-9.7751-16.1776v-.5508c0-5.4229,4.3962-9.8191,9.8192-9.8191h1.8141c4.39,0,8.1419,2.945,9.4457,7.1368,3.0387,9.7697,12.1515,16.8632,22.921,16.8632s19.8823-7.0935,22.921-16.8632c1.3038-4.1918,5.0557-7.1368,9.4457-7.1368h1.8141c5.423,0,9.8192,4.3962,9.8192,9.8191v.5508c0,6.7897-3.8542,12.8542-9.7751,16.1776-6.1018,3.425-10.2249,9.9573-10.2249,17.4526Z" fill="#d2e0fb" stroke-width="0"/></svg>