<?xml version="1.0" encoding="UTF-8"?><svg id="a" xmlns="http://www.w3.org/2000/svg" width="96" height="96" viewBox="0 0 96 96"><path d="M69.8442,92h-11.0002L4,37.1559v-11.0002l65.8442,65.8442ZM4,53.8116v11.0002l27.1881,27.1882h11.0002L4,53.8116ZM4,39.9844v10.9988l41.0167,41.0168h10.9989L4,39.9844ZM17.3608,92h10.9989l-24.3597-24.3597v10.9988l13.3608,13.3609ZM9.5001,4h-5.5001v5.5001l82.4999,82.4999h5.5001v-5.5001L9.5001,4ZM92,14.5325V4h-10.5325l10.5325,10.5325ZM78.6392,4h-11.0002l24.3611,24.3611v-11.0002l-13.3608-13.3608ZM64.8105,4h-10.9988l38.1883,38.1884v-10.9989l-27.1895-27.1895ZM4,81.4675v10.5325h10.5325l-10.5325-10.5325ZM50.9833,4h-11.0002l52.017,52.017v-11.0002L50.9833,4ZM23.3274,4h-10.9988l79.6714,79.6715v-10.9989L23.3274,4ZM37.1546,4h-10.9988l65.8442,65.8442v-10.9989L37.1546,4ZM4,12.3285v10.9988l68.6726,68.6727h10.9989L4,12.3285Z" fill="#bef264" stroke-width="0"/></svg>