<?xml version="1.0" encoding="UTF-8"?><svg id="a" xmlns="http://www.w3.org/2000/svg" width="96" height="96" viewBox="0 0 96 96"><path d="M61.6599,49.7983c17.611-.5071,30.3401-1.7983,30.3401-1.7983,0,0-12.7292-1.2912-30.3403-1.7983,16.8798-5.048,28.8411-9.5897,28.8411-9.5897,0,0-12.6295,2.0474-29.7717,6.1155,14.9979-9.2447,25.376-16.7274,25.376-16.7274,0,0-11.6693,5.2463-27.1745,13.6127,12.0942-12.8115,20.1821-22.7254,20.1821-22.7254,0,0-9.9139,8.0879-22.7254,20.1821,8.3663-15.5052,13.6127-27.1745,13.6127-27.1745,0,0-7.4827,10.3781-16.7274,25.376,4.0681-17.1422,6.1155-29.7717,6.1155-29.7717,0,0-4.5417,11.9613-9.5897,28.8411-.5071-17.6111-1.7983-30.3403-1.7983-30.3403,0,0-1.2912,12.7291-1.7983,30.3401-5.048-16.8797-9.5897-28.8409-9.5897-28.8409,0,0,2.0474,12.6296,6.1155,29.7719-9.2448-14.9981-16.7275-25.3762-16.7275-25.3762,0,0,5.2463,11.6693,13.6127,27.1745-12.8115-12.0942-22.7253-20.1821-22.7253-20.1821,0,0,8.0879,9.9139,20.1822,22.7255-15.5052-8.3663-27.1746-13.6127-27.1746-13.6127,0,0,10.3781,7.4828,25.376,16.7274-17.1421-4.0681-29.7717-6.1155-29.7717-6.1155,0,0,11.9614,4.5417,28.8411,9.5897-17.6111.5071-30.3403,1.7983-30.3403,1.7983,0,0,12.7291,1.2912,30.3401,1.7983-16.8796,5.048-28.8409,9.5897-28.8409,9.5897,0,0,12.6296-2.0474,29.7718-6.1155-14.998,9.2448-25.3762,16.7275-25.3762,16.7275,0,0,11.6694-5.2465,27.1746-13.6127-12.0943,12.8116-20.1822,22.7254-20.1822,22.7254,0,0,9.9138-8.0879,22.7254-20.1822-8.3663,15.5052-13.6127,27.1746-13.6127,27.1746,0,0,7.4827-10.3781,16.7275-25.3762-4.0682,17.1422-6.1155,29.7718-6.1155,29.7718,0,0,4.5417-11.9612,9.5897-28.8409.5071,17.611,1.7983,30.3401,1.7983,30.3401,0,0,1.2912-12.7292,1.7983-30.3403,5.048,16.8797,9.5897,28.8411,9.5897,28.8411,0,0-2.0474-12.6296-6.1155-29.7717,9.2446,14.9979,16.7274,25.376,16.7274,25.376,0,0-5.2465-11.6694-13.6127-27.1746,12.8115,12.0943,22.7255,20.1822,22.7255,20.1822,0,0-8.0879-9.9138-20.1821-22.7253,15.5052,8.3663,27.1745,13.6127,27.1745,13.6127,0,0-10.3781-7.4827-25.3762-16.7275,17.1422,4.0682,29.7719,6.1155,29.7719,6.1155,0,0-11.9612-4.5417-28.8409-9.5897Z" fill="#f0dbaf" stroke-width="0"/></svg>