<?xml version="1.0" encoding="UTF-8"?><svg id="a" xmlns="http://www.w3.org/2000/svg" width="96" height="96" viewBox="0 0 96 96"><path d="M92,52h-29.0718l25.1769,14.5359-4,6.9282-25.1769-14.5359,14.5359,25.1769-6.9282,4-14.5359-25.1769v29.0718h-8v-29.0718l-14.5359,25.1769-6.9282-4,14.5359-25.1769-25.1769,14.5359-4-6.9282,25.1769-14.5359H4v-8h29.0718L7.8949,29.4641l4-6.9282,25.1769,14.5359-14.5359-25.1769,6.9282-4,14.5359,25.1769V4h8v29.0718l14.5359-25.1769,6.9282,4-14.5359,25.1769,25.1769-14.5359,4,6.9282-25.1769,14.5359h29.0718v8Z" fill="#8eaccd" stroke-width="0"/></svg>