<?xml version="1.0" encoding="UTF-8"?><svg id="a" xmlns="http://www.w3.org/2000/svg" width="96" height="96" viewBox="0 0 96 96"><path d="M52,4l-4,44-4-44h8ZM52,92l-4-44-4,44h8ZM22.5359,11.8949l25.4641,36.1051L29.4641,7.8949l-6.9282,4ZM73.4641,84.1051l-25.4641-36.1051,18.5359,40.1051,6.9282-4ZM7.8949,29.4641l40.1051,18.5359L11.8949,22.5359l-4,6.9282ZM88.1051,66.5359l-40.1051-18.5359,36.1051,25.4641,4-6.9282ZM4,52l44-4-44-4v8ZM92,44l-44,4,44,4v-8ZM11.8949,73.4641l36.1051-25.4641L7.8949,66.5359l4,6.9282ZM84.1051,22.5359l-36.1051,25.4641,40.1051-18.5359-4-6.9282ZM29.4641,88.1051l18.5359-40.1051-25.4641,36.1051,6.9282,4ZM66.5359,7.8949l-18.5359,40.1051,25.4641-36.1051-6.9282-4Z" fill="#98ddca" stroke-width="0"/></svg>