<?xml version="1.0" encoding="UTF-8"?><svg id="a" xmlns="http://www.w3.org/2000/svg" width="96" height="96" viewBox="0 0 96 96"><path d="M68,50.8569c9.9589.4311,24,0,24-2.8569s-14.0411-3.2881-24-2.857c-8.887.3847-16.4625,2.0114-19.0473,2.6226-.0032-.0131-.0043-.0269-.008-.0397,2.5461-.7638,9.9178-3.1426,17.8043-7.2517,8.8403-4.6061,20.7846-12,19.3561-14.4742-1.4285-2.4742-13.804,4.173-22.2131,9.5258-7.4914,4.7686-13.2307,9.9547-15.1732,11.7847-.0097-.0102-.0191-.0196-.0293-.0293,1.83-1.9425,7.016-7.6818,11.7846-15.1732,5.3528-8.4092,12-20.7846,9.5258-22.2131-2.4742-1.4285-9.868,10.5159-14.4742,19.3561-4.1091,7.8865-6.4879,15.2582-7.2517,17.8043-.0129-.0037-.0266-.0048-.0397-.008.6113-2.5848,2.2379-10.1603,2.6226-19.0473.4311-9.9589,0-24-2.8569-24s-3.288,14.0411-2.8569,24c.3846,8.887,2.0113,16.4625,2.6226,19.0473-.0131.0032-.0269.0043-.0397.008-.7638-2.5461-3.1426-9.9178-7.2517-17.8043-4.6061-8.8402-12-20.7846-14.4742-19.3561-2.4742,1.4285,4.173,13.8039,9.5258,22.2131,4.7686,7.4914,9.9546,13.2307,11.7846,15.1732-.0102.0097-.0196.0191-.0293.0293-1.9425-1.83-7.6818-7.0161-15.1732-11.7847-8.4091-5.3528-20.7846-12-22.2131-9.5258-1.4285,2.4742,10.5159,9.868,19.3561,14.4742,7.8864,4.1091,15.2581,6.4879,17.8043,7.2517-.0037.0129-.0048.0266-.008.0397-2.5848-.6113-10.1603-2.2379-19.0473-2.6226-9.9589-.4311-24,0-24,2.857s14.0411,3.288,24,2.8569c8.887-.3846,16.4625-2.0113,19.0473-2.6226.0032.0131.0043.0269.008.0397-2.5461.7637-9.9178,3.1425-17.8043,7.2516-8.8403,4.6061-20.7846,12-19.3561,14.4742,1.4285,2.4742,13.804-4.173,22.2131-9.5258,7.4914-4.7686,13.2307-9.9546,15.1732-11.7846.0097.0101.0191.0196.0293.0293-1.83,1.9425-7.016,7.6818-11.7846,15.1732-5.3528,8.4091-12,20.7846-9.5258,22.2131s9.868-10.5159,14.4742-19.3561c4.1092-7.8864,6.488-15.2582,7.2517-17.8043.0129.0037.0266.0048.0397.0081-.6113,2.5848-2.2379,10.1603-2.6226,19.0473-.4311,9.9589,0,24,2.8569,24s3.288-14.0411,2.8569-24c-.3846-8.887-2.0113-16.4625-2.6226-19.0473.0131-.0032.0269-.0043.0397-.0081.7637,2.5461,3.1425,9.9179,7.2517,17.8043,4.6061,8.8402,12,20.7846,14.4742,19.3561s-4.173-13.804-9.5258-22.2131c-4.7686-7.4914-9.9546-13.2307-11.7846-15.1732.0102-.0097.0196-.0192.0293-.0293,1.9425,1.83,7.6818,7.016,15.1732,11.7846,8.4091,5.3528,20.7846,12,22.2131,9.5258,1.4285-2.4742-10.5159-9.8681-19.3561-14.4742-7.8864-4.1091-15.2581-6.4879-17.8043-7.2516.0037-.0129.0048-.0266.008-.0397,2.5848.6113,10.1603,2.2379,19.0473,2.6226Z" fill="#ff8080" stroke-width="0"/></svg>