<?xml version="1.0" encoding="UTF-8"?><svg id="a" xmlns="http://www.w3.org/2000/svg" width="96" height="96" viewBox="0 0 96 96"><path d="M70,35c10.6078,0,19.4608,7.5083,21.5378,17.5.302-1.4528.4622-2.9576.4622-4.5,0-12.1503-9.8497-22-22-22-10.7953,0-19.7556,7.7817-21.6238,18.0379-.0092-.0009-.0183-.002-.0275-.0027.8026-4.9094,3.4539-13.2418,12.2038-18.2935,9.1866-5.3039,20.6077-3.228,27.4023,4.3866-.4649-1.4092-1.0785-2.7925-1.8497-4.1282-6.0751-10.5225-19.5301-14.1277-30.0526-8.0526-9.3457,5.3958-13.2166,16.6094-9.7128,26.423-.0082.0038-.0156.009-.0237.0128-1.7587-4.6543-3.6232-13.1909,1.4257-21.9358,5.3039-9.1867,16.2327-13.0994,25.9243-9.9023-1.1072-.988-2.3303-1.8791-3.666-2.6503-10.5225-6.0751-23.9774-2.4699-30.0526,8.0526-5.3956,9.3455-3.1414,20.9919,4.7993,27.739-.0052.0073-.0119.0133-.017.0206-3.8503-3.1525-9.7297-9.6124-9.7297-19.707,0-10.6078,7.5083-19.4608,17.5-21.5378-1.4528-.302-2.9576-.4622-4.5-.4622-12.1503,0-22,9.8497-22,22,0,10.7953,7.7817,19.7556,18.0379,21.6238-.0009.0092-.002.0183-.0027.0275-4.9094-.8026-13.2417-3.4539-18.2935-12.2038-5.304-9.1867-3.228-20.6077,4.3865-27.4023-1.4092.4648-2.7925,1.0785-4.1282,1.8497-10.5225,6.0751-14.1277,19.5301-8.0526,30.0526,5.3958,9.3457,16.6094,13.2167,26.423,9.7129.0038.0082.009.0155.0129.0237-4.6543,1.7587-13.1909,3.6232-21.9359-1.4257-9.1866-5.3039-13.0994-16.2327-9.9023-25.9243-.9879,1.1072-1.8791,2.3302-2.6503,3.666-6.0751,10.5224-2.4699,23.9774,8.0526,30.0526,9.3455,5.3956,20.9919,3.1413,27.739-4.7994.0073.0052.0133.0119.0206.017-3.1526,3.8503-9.6123,9.7298-19.707,9.7298-10.6078,0-19.4608-7.5083-21.5378-17.5-.302,1.4528-.4622,2.9576-.4622,4.5,0,12.1503,9.8497,22,22,22,10.7953,0,19.7556-7.7817,21.6238-18.0379.0092.0009.0183.002.0275.0027-.8026,4.9094-3.4539,13.2417-12.2038,18.2935-9.1866,5.304-20.6077,3.228-27.4023-4.3865.4649,1.4092,1.0785,2.7924,1.8497,4.1282,6.0751,10.5224,19.5301,14.1277,30.0526,8.0526,9.3457-5.3958,13.2166-16.6094,9.7128-26.423.0082-.0038.0156-.009.0237-.0129,1.7587,4.6543,3.6232,13.1909-1.4257,21.9359-5.3039,9.1866-16.2327,13.0994-25.9243,9.9023,1.1072.9879,2.3303,1.879,3.666,2.6503,10.5225,6.0751,23.9774,2.4699,30.0526-8.0526,5.3956-9.3455,3.1414-20.9919-4.7993-27.739.0052-.0073.0119-.0133.017-.0206,3.8502,3.1525,9.7297,9.6123,9.7297,19.707,0,10.6078-7.5083,19.4608-17.5,21.5378,1.4528.302,2.9576.4622,4.5.4622,12.1503,0,22-9.8497,22-22,0-10.7953-7.7817-19.7556-18.0379-21.6238.0009-.0092.002-.0183.0027-.0275,4.9094.8026,13.2417,3.4538,18.2935,12.2038,5.304,9.1866,3.228,20.6077-4.3865,27.4023,1.4092-.4649,2.7925-1.0786,4.1282-1.8497,10.5225-6.0751,14.1277-19.5301,8.0526-30.0526-5.3958-9.3457-16.6094-13.2166-26.423-9.7128-.0038-.0082-.009-.0156-.0128-.0237,4.6543-1.7587,13.1909-3.6232,21.9358,1.4257,9.1866,5.304,13.0994,16.2328,9.9023,25.9244.9879-1.1072,1.8791-2.3303,2.6503-3.666,6.0751-10.5225,2.4699-23.9774-8.0526-30.0526-9.3455-5.3956-20.9919-3.1414-27.739,4.7993-.0073-.0052-.0133-.0119-.0206-.017,3.1526-3.8503,9.6124-9.7297,19.707-9.7297Z" fill="#95d2b3" stroke-width="0"/></svg>