<?xml version="1.0" encoding="UTF-8"?><svg id="a" xmlns="http://www.w3.org/2000/svg" width="96" height="96" viewBox="0 0 96 96"><path d="M92,48c0-.2558-.1691-.5072-.4954-.7526-8.9802-6.7562-13.7844-18.3501-12.2101-29.4772.0572-.4045-.0009-.702-.1818-.8829-.1809-.1809-.4781-.239-.8823-.1819-11.1276,1.5718-22.7213-3.2298-29.4778-12.21-.2455-.3262-.4968-.4954-.7526-.4954s-.5071.1691-.7526.4954c-6.7565,8.9802-18.3501,13.7818-29.4778,12.21-.4042-.0571-.7014.001-.8823.1819-.181.181-.2391.4784-.1818.8829,1.5743,11.1271-3.2298,22.721-12.2101,29.4772-.3263.2455-.4954.4968-.4954.7526s.1691.5072.4954.7526c8.9802,6.7562,13.7841,18.35,12.2101,29.4772-.0572.4045.0009.7019.1818.8829.1809.181.4784.2391.8828.1818,11.1271-1.5739,22.721,3.2298,29.4772,12.2101.2455.3263.4968.4954.7526.4954s.5072-.1691.7526-.4954c6.7562-8.9802,18.3501-13.784,29.4772-12.2101.4044.0572.7019-.0009.8828-.1818.181-.181.2391-.4784.1818-.8829-1.574-11.1271,3.2298-22.721,12.2101-29.4772.3263-.2455.4954-.4968.4954-.7526Z" fill="#f3d0d7" stroke-width="0"/></svg>