<?xml version="1.0" encoding="UTF-8"?><svg id="a" xmlns="http://www.w3.org/2000/svg" width="96" height="96" viewBox="0 0 96 96"><path d="M92,66v18.6666c0,4.0501-3.2833,7.3334-7.3333,7.3334s-7.3334-3.2833-7.3334-7.3334c0,4.0501-3.2832,7.3334-7.3333,7.3334s-7.3333-3.2833-7.3333-7.3334c0,4.0501-3.2833,7.3334-7.3334,7.3334s-7.3333-3.2833-7.3333-7.3334c0,4.0501-3.2833,7.3334-7.3333,7.3334s-7.3334-3.2833-7.3334-7.3334c0,4.0501-3.2832,7.3334-7.3333,7.3334s-7.3333-3.2833-7.3333-7.3334c0,4.0501-3.2833,7.3334-7.3334,7.3334s-7.3333-3.2833-7.3333-7.3334v-18.6666c0,4.05,3.2833,7.3333,7.3333,7.3333s7.3334-3.2833,7.3334-7.3333c0,4.05,3.2832,7.3333,7.3333,7.3333s7.3333-3.2833,7.3333-7.3333c0,4.05,3.2833,7.3333,7.3334,7.3333s7.3333-3.2833,7.3333-7.3333c0,4.05,3.2833,7.3333,7.3333,7.3333s7.3334-3.2833,7.3334-7.3333c0,4.05,3.2832,7.3333,7.3333,7.3333s7.3333-3.2833,7.3333-7.3333c0,4.05,3.2833,7.3333,7.3334,7.3333s7.3333-3.2833,7.3333-7.3333ZM84.6667,42.3333c-4.0501,0-7.3334-3.2833-7.3334-7.3333,0,4.05-3.2832,7.3333-7.3333,7.3333s-7.3333-3.2833-7.3333-7.3333c0,4.05-3.2833,7.3333-7.3334,7.3333s-7.3333-3.2833-7.3333-7.3333c0,4.05-3.2833,7.3333-7.3333,7.3333s-7.3334-3.2833-7.3334-7.3333c0,4.05-3.2832,7.3333-7.3333,7.3333s-7.3333-3.2833-7.3333-7.3333c0,4.05-3.2833,7.3333-7.3334,7.3333s-7.3333-3.2833-7.3333-7.3333v18.6666c0,4.0501,3.2833,7.3334,7.3333,7.3334s7.3334-3.2833,7.3334-7.3334c0,4.0501,3.2832,7.3334,7.3333,7.3334s7.3333-3.2833,7.3333-7.3334c0,4.0501,3.2833,7.3334,7.3334,7.3334s7.3333-3.2833,7.3333-7.3334c0,4.0501,3.2833,7.3334,7.3333,7.3334s7.3334-3.2833,7.3334-7.3334c0,4.0501,3.2832,7.3334,7.3333,7.3334s7.3333-3.2833,7.3333-7.3334c0,4.0501,3.2833,7.3334,7.3334,7.3334s7.3333-3.2833,7.3333-7.3334v-18.6666c0,4.05-3.2833,7.3333-7.3333,7.3333ZM84.6667,11.3333c-4.0501,0-7.3334-3.2833-7.3334-7.3333,0,4.05-3.2832,7.3333-7.3333,7.3333s-7.3333-3.2833-7.3333-7.3333c0,4.05-3.2833,7.3333-7.3334,7.3333s-7.3333-3.2833-7.3333-7.3333c0,4.05-3.2833,7.3333-7.3333,7.3333s-7.3334-3.2833-7.3334-7.3333c0,4.05-3.2832,7.3333-7.3333,7.3333s-7.3333-3.2833-7.3333-7.3333c0,4.05-3.2833,7.3333-7.3334,7.3333s-7.3333-3.2833-7.3333-7.3333v18.6666c0,4.0501,3.2833,7.3334,7.3333,7.3334s7.3334-3.2833,7.3334-7.3334c0,4.0501,3.2832,7.3334,7.3333,7.3334s7.3333-3.2833,7.3333-7.3334c0,4.0501,3.2833,7.3334,7.3334,7.3334s7.3333-3.2833,7.3333-7.3334c0,4.0501,3.2833,7.3334,7.3333,7.3334s7.3334-3.2833,7.3334-7.3334c0,4.0501,3.2832,7.3334,7.3333,7.3334s7.3333-3.2833,7.3333-7.3334c0,4.0501,3.2833,7.3334,7.3334,7.3334s7.3333-3.2833,7.3333-7.3334V4c0,4.05-3.2833,7.3333-7.3333,7.3333Z" fill="#1572a1" stroke-width="0"/></svg>